HIERARCHY
ROOT Hips
{
	OFFSET 0.000000 0.000000 0.000000
	CHANNELS 6 Xposition Yposition Zposition Xrotation Yrotation Zrotation
	JOINT C_ctrl
	{
		OFFSET 0.000000 35.040482 -0.000011
		CHANNELS 3 Xrotation Yrotation Zrotation
		JOINT Bip01
		{
			OFFSET -41.537640 41.789009 -0.000007
			CHANNELS 3 Xrotation Yrotation Zrotation
			JOINT Bip01_Pelvis
			{
				OFFSET -2.462887 0.000000 0.000000
				CHANNELS 3 Xrotation Yrotation Zrotation
				JOINT BN_Tail_01
				{
					OFFSET -11.399368 7.351341 -0.000013
					CHANNELS 3 Xrotation Yrotation Zrotation
					JOINT BN_Tail_02
					{
						OFFSET -11.365196 -0.343025 0.000012
						CHANNELS 3 Xrotation Yrotation Zrotation
						JOINT BN_Tail_03
						{
							OFFSET -15.076256 -0.454979 0.000017
							CHANNELS 3 Xrotation Yrotation Zrotation
							JOINT BN_Tail_04
							{
								OFFSET -17.395691 -0.525002 0.000016
								CHANNELS 3 Xrotation Yrotation Zrotation
								JOINT BN_Tail_05
								{
									OFFSET -16.699837 -0.504005 0.000016
									CHANNELS 3 Xrotation Yrotation Zrotation
									End Site
									{
										OFFSET 0.503998 -16.699829 0.000067
									}
								}
							}
						}
					}
				}
				JOINT Bip01_Spine
				{
					OFFSET 8.297798 5.916809 -0.000020
					CHANNELS 3 Xrotation Yrotation Zrotation
					JOINT Bip01_R_Thigh
					{
						OFFSET -8.297779 -5.916794 10.541781
						CHANNELS 3 Xrotation Yrotation Zrotation
						JOINT Bip01_R_Calf
						{
							OFFSET 5.631542 -22.906792 0.862690
							CHANNELS 3 Xrotation Yrotation Zrotation
							JOINT Bip01_R_HorseLink
							{
								OFFSET -16.984341 -19.231926 -3.555767
								CHANNELS 3 Xrotation Yrotation Zrotation
								JOINT Bip01_R_Foot
								{
									OFFSET 4.290367 -24.783146 0.578056
									CHANNELS 3 Xrotation Yrotation Zrotation
									JOINT Bip01_R_Toe0
									{
										OFFSET 3.561211 -5.815116 0.760802
										CHANNELS 3 Xrotation Yrotation Zrotation
										JOINT Bip01_R_Toe0Nub
										{
											OFFSET 16.135469 0.002017 1.534789
											CHANNELS 3 Xrotation Yrotation Zrotation
											End Site
											{
												OFFSET -0.000002 16.208284 -0.000056
											}
										}
									}
								}
							}
						}
					}
					JOINT Bip01_L_Thigh
					{
						OFFSET -8.297813 -5.916832 -10.541739
						CHANNELS 3 Xrotation Yrotation Zrotation
						JOINT Bip01_L_Calf
						{
							OFFSET 5.631535 -22.906792 -0.862625
							CHANNELS 3 Xrotation Yrotation Zrotation
							JOINT Bip01_L_HorseLink
							{
								OFFSET -16.984318 -19.231949 3.555875
								CHANNELS 3 Xrotation Yrotation Zrotation
								JOINT Bip01_L_Foot
								{
									OFFSET 4.290367 -24.783169 -0.577965
									CHANNELS 3 Xrotation Yrotation Zrotation
									JOINT Bip01_L_Toe0
									{
										OFFSET 3.561245 -5.815111 -0.760799
										CHANNELS 3 Xrotation Yrotation Zrotation
										JOINT Bip01_L_Toe0Nub
										{
											OFFSET 6.574303 -0.000005 -1.538561
											CHANNELS 3 Xrotation Yrotation Zrotation
											End Site
											{
												OFFSET 0.000004 -6.751935 0.000023
											}
										}
									}
								}
							}
						}
					}
					JOINT Bip01_Spine1
					{
						OFFSET 20.556803 -4.626213 -0.000025
						CHANNELS 3 Xrotation Yrotation Zrotation
						JOINT Saddle
						{
							OFFSET 17.608810 18.174690 -0.000143
							CHANNELS 3 Xrotation Yrotation Zrotation
							End Site
							{
								OFFSET -0.000063 -0.000061 -22.448387
							}
						}
						JOINT BN_center
						{
							OFFSET 10.743275 -13.417107 -0.172041
							CHANNELS 3 Xrotation Yrotation Zrotation
							End Site
							{
								OFFSET 22.434088 0.553078 -0.579614
							}
						}
						JOINT Bip01_Spine2
						{
							OFFSET 24.765072 -2.054115 -0.000032
							CHANNELS 3 Xrotation Yrotation Zrotation
							JOINT Handle
							{
								OFFSET 63.735676 16.430748 -16.052464
								CHANNELS 3 Xrotation Yrotation Zrotation
								JOINT IK_Chain01
								{
									OFFSET -4.713058 -6.020439 0.185448
									CHANNELS 3 Xrotation Yrotation Zrotation
									End Site
									{
										OFFSET -0.000023 -0.000023 -7.648071
									}
								}
							}
							JOINT BN_hair04_01
							{
								OFFSET 1.987491 16.256981 -2.049672
								CHANNELS 3 Xrotation Yrotation Zrotation
								JOINT BN_hair04_02
								{
									OFFSET -1.318762 -3.831451 -6.174704
									CHANNELS 3 Xrotation Yrotation Zrotation
									JOINT BN_hair04_03
									{
										OFFSET -0.827490 -5.886627 -5.656666
										CHANNELS 3 Xrotation Yrotation Zrotation
										End Site
										{
											OFFSET -2.658262 5.010620 -5.929780
										}
									}
								}
							}
							JOINT Bip01_Neck
							{
								OFFSET 25.574577 9.433014 -0.000084
								CHANNELS 3 Xrotation Yrotation Zrotation
								JOINT Bip01_R_Clavicle
								{
									OFFSET -16.535652 0.011192 6.705692
									CHANNELS 3 Xrotation Yrotation Zrotation
									JOINT Bip01_R_UpperArm
									{
										OFFSET 20.272621 -12.959984 2.510816
										CHANNELS 3 Xrotation Yrotation Zrotation
										JOINT Bip01_R_Forearm
										{
											OFFSET -13.633509 -15.503704 -0.653585
											CHANNELS 3 Xrotation Yrotation Zrotation
											JOINT Bip01_R_Hand
											{
												OFFSET 2.580030 -27.804676 -1.136415
												CHANNELS 3 Xrotation Yrotation Zrotation
												JOINT Bip01_R_Finger0
												{
													OFFSET -0.281744 -19.659061 -0.398649
													CHANNELS 3 Xrotation Yrotation Zrotation
													JOINT Bip01_Xtra02
													{
														OFFSET 4.152210 -5.712314 0.433813
														CHANNELS 3 Xrotation Yrotation Zrotation
														JOINT Bip01_Xtra02Nub
														{
															OFFSET 15.457960 0.041654 0.507982
															CHANNELS 3 Xrotation Yrotation Zrotation
															End Site
															{
																OFFSET -15.421730 -0.157725 -1.163459
															}
														}
													}
													JOINT Bip01_R_Finger0Nub
													{
														OFFSET 8.362326 -9.718440 -0.143142
														CHANNELS 3 Xrotation Yrotation Zrotation
														End Site
														{
															OFFSET -1.213036 -0.198171 9.872291
														}
													}
												}
											}
										}
									}
								}
								JOINT Bip01_L_Clavicle
								{
									OFFSET -16.535673 0.011162 -6.705583
									CHANNELS 3 Xrotation Yrotation Zrotation
									JOINT Bip01_L_UpperArm
									{
										OFFSET 20.272615 -12.959999 -2.510836
										CHANNELS 3 Xrotation Yrotation Zrotation
										JOINT Bip01_L_Forearm
										{
											OFFSET -13.633495 -15.503681 0.653678
											CHANNELS 3 Xrotation Yrotation Zrotation
											JOINT Bip01_L_Hand
											{
												OFFSET 2.579988 -27.804686 1.136487
												CHANNELS 3 Xrotation Yrotation Zrotation
												JOINT Bip01_L_Finger0
												{
													OFFSET -0.281765 -19.659058 0.398696
													CHANNELS 3 Xrotation Yrotation Zrotation
													JOINT Bip01_Xtra01
													{
														OFFSET 4.083549 -5.738758 -0.666714
														CHANNELS 3 Xrotation Yrotation Zrotation
														JOINT Bip01_Xtra01Nub
														{
															OFFSET 6.758158 -0.395525 -0.023239
															CHANNELS 3 Xrotation Yrotation Zrotation
															End Site
															{
																OFFSET 6.764923 -0.254147 -0.029908
															}
														}
													}
													JOINT Bip01_L_Finger0Nub
													{
														OFFSET -0.012636 -9.629153 0.045740
														CHANNELS 3 Xrotation Yrotation Zrotation
														End Site
														{
															OFFSET 0.988407 0.004791 8.293357
														}
													}
												}
											}
										}
									}
								}
								JOINT BN_hair03_01
								{
									OFFSET -5.894140 16.270622 -2.498433
									CHANNELS 3 Xrotation Yrotation Zrotation
									JOINT BN_hair03_02
									{
										OFFSET -0.189278 -7.800507 -6.219162
										CHANNELS 3 Xrotation Yrotation Zrotation
										JOINT BN_hair03_03
										{
											OFFSET 0.612345 -10.844475 -3.370718
											CHANNELS 3 Xrotation Yrotation Zrotation
											End Site
											{
												OFFSET -2.273296 2.862007 -10.769416
											}
										}
									}
								}
								JOINT Bip01_Neck1
								{
									OFFSET 9.383755 11.908699 -0.000007
									CHANNELS 3 Xrotation Yrotation Zrotation
									JOINT BN_hair02_01
									{
										OFFSET 9.126320 18.808022 -1.420810
										CHANNELS 3 Xrotation Yrotation Zrotation
										JOINT BN_hair02_02
										{
											OFFSET 0.393478 -5.181091 -5.248574
											CHANNELS 3 Xrotation Yrotation Zrotation
											JOINT BN_hair02_03
											{
												OFFSET 0.762280 -8.167076 -0.230047
												CHANNELS 3 Xrotation Yrotation Zrotation
												End Site
												{
													OFFSET -0.025837 -1.251419 -8.109770
												}
											}
										}
									}
									JOINT Bip01_Head
									{
										OFFSET 14.266129 10.475403 -0.000008
										CHANNELS 3 Xrotation Yrotation Zrotation
										JOINT BN_Reins_01
										{
											OFFSET 18.547455 -15.740112 -0.000035
											CHANNELS 3 Xrotation Yrotation Zrotation
											JOINT BN_Reins_02
											{
												OFFSET -5.372810 -5.884506 0.000028
												CHANNELS 3 Xrotation Yrotation Zrotation
												JOINT BN_Reins_03
												{
													OFFSET -6.395866 -15.947449 0.000070
													CHANNELS 3 Xrotation Yrotation Zrotation
													JOINT BN_Halter_R_01
													{
														OFFSET -1.234055 -3.096100 7.096737
														CHANNELS 3 Xrotation Yrotation Zrotation
														End Site
														{
															OFFSET 10.514435 -4.176861 -0.000004
														}
													}
													JOINT BN_Halter_L_01
													{
														OFFSET -1.234062 -3.096146 -7.096726
														CHANNELS 3 Xrotation Yrotation Zrotation
														End Site
														{
															OFFSET -10.514435 4.176865 -0.000000
														}
													}
													JOINT BN_Reins_04
													{
														OFFSET -6.737644 -16.971684 0.000074
														CHANNELS 3 Xrotation Yrotation Zrotation
														JOINT BN_Halter_R_02
														{
															OFFSET -4.688869 -11.781956 7.096771
															CHANNELS 3 Xrotation Yrotation Zrotation
															End Site
															{
																OFFSET 14.669624 -5.827511 -0.000006
															}
														}
														JOINT BN_Halter_L_02
														{
															OFFSET -4.688892 -11.782017 -7.096693
															CHANNELS 3 Xrotation Yrotation Zrotation
															End Site
															{
																OFFSET -14.669624 5.827507 -0.000002
															}
														}
														JOINT BN_Reins_05
														{
															OFFSET -6.822578 -16.971161 0.000074
															CHANNELS 3 Xrotation Yrotation Zrotation
															JOINT BN_Reins_06
															{
																OFFSET -6.140354 -15.095148 0.000066
																CHANNELS 3 Xrotation Yrotation Zrotation
																End Site
																{
																	OFFSET -15.095150 6.140352 -0.000002
																}
															}
														}
													}
												}
											}
										}
										JOINT BN_hair01_01
										{
											OFFSET 8.957344 8.870956 0.112121
											CHANNELS 3 Xrotation Yrotation Zrotation
											JOINT BN_hair01_02
											{
												OFFSET 6.002075 -2.962952 -3.121264
												CHANNELS 3 Xrotation Yrotation Zrotation
												End Site
												{
													OFFSET 5.917702 3.813591 -2.232396
												}
											}
										}
										JOINT BN_Eyebrow_R
										{
											OFFSET 11.795959 -0.430496 4.449781
											CHANNELS 3 Xrotation Yrotation Zrotation
											JOINT Bip01_Xtra06Nub
											{
												OFFSET 2.936661 -0.262573 3.246701
												CHANNELS 3 Xrotation Yrotation Zrotation
												End Site
												{
													OFFSET 2.768745 0.208199 3.394807
												}
											}
										}
										JOINT BN_Eyebrow_L
										{
											OFFSET 11.586395 -0.445618 -4.441728
											CHANNELS 3 Xrotation Yrotation Zrotation
											JOINT Bip01_Xtra05Nub
											{
												OFFSET 3.244698 -0.349442 -4.416700
												CHANNELS 3 Xrotation Yrotation Zrotation
												End Site
												{
													OFFSET 3.053162 0.072495 -4.564033
												}
											}
										}
										JOINT Bip01_R_Ear_01
										{
											OFFSET 7.142960 7.567184 4.311657
											CHANNELS 3 Xrotation Yrotation Zrotation
											JOINT Bip01_Xtra04Nub
											{
												OFFSET 9.464531 9.264214 1.682953
												CHANNELS 3 Xrotation Yrotation Zrotation
												End Site
												{
													OFFSET 8.448181 10.159340 1.910823
												}
											}
										}
										JOINT Bip01__L_Ear_01
										{
											OFFSET 7.214943 7.717056 -4.356771
											CHANNELS 3 Xrotation Yrotation Zrotation
											JOINT Bip01_Xtra03Nub
											{
												OFFSET 9.230225 8.944366 -2.322746
												CHANNELS 3 Xrotation Yrotation Zrotation
												End Site
												{
													OFFSET 8.170288 9.841324 -2.643566
												}
											}
										}
										JOINT Bip01_Jaw
										{
											OFFSET 9.196068 -4.110695 -0.000013
											CHANNELS 3 Xrotation Yrotation Zrotation
											JOINT Bip01_Ponytail1Nub
											{
												OFFSET 10.976463 -21.082108 -0.000053
												CHANNELS 3 Xrotation Yrotation Zrotation
												End Site
												{
													OFFSET 11.247093 -20.938980 0.000113
												}
											}
										}
										JOINT Bip01_HeadNub
										{
											OFFSET 29.954575 -18.249489 -0.000063
											CHANNELS 3 Xrotation Yrotation Zrotation
											End Site
											{
												OFFSET -9.198448 -13.366348 0.000168
											}
										}
									}
								}
							}
						}
					}
				}
			}
		}
	}
}
MOTION
Frames: 4
Frame Time: 0.033333
0.000000 0.000000 0.000000 0.000008 0.000000 -0.000000 -0.000000 0.000000 -0.000000 -0.047661 0.094904 -2.173073 0.575381 -1.977233 3.828354 0.263915 2.666740 50.392159 -0.009576 -6.224774 -2.602949 -0.350422 -4.817293 -8.121106 -1.674909 -3.752182 -29.069572 -0.728378 -4.396944 -21.270754 0.500006 4.092762 11.091027 3.761421 15.307827 -19.365306 2.151779 -0.087416 -10.924695 -6.199255 -2.264663 33.832355 -2.440275 -19.056303 -18.582003 -0.070048 0.702293 -0.026295 0.000101 -0.000137 0.000004 8.385004 -11.373643 -2.321456 -5.627850 1.151584 -29.385912 4.605858 1.260985 24.333398 -14.383398 8.562914 -24.229043 0.000804 0.526740 -0.007891 -0.003824 0.006515 -0.038813 0.935066 -0.358982 -6.811816 0.917530 -0.020777 6.784391 1.111860 -0.135810 -0.004972 -0.168446 1.108719 -6.896165 0.000078 -0.000112 -0.000055 -0.000052 -0.014928 0.015042 -0.008317 0.000144 0.012238 2.768117 4.631676 -5.204398 -18.883311 8.820964 -2.120116 2.989061 -1.193980 -9.741348 -3.294425 1.099470 12.602547 -8.217509 -5.748968 1.834641 -0.001195 -0.071451 1.741965 7.281447 4.275329 -6.242174 1.973544 3.498313 1.788511 -0.279535 -0.000282 -4.754362 -0.802232 0.160591 -0.479877 -0.804178 0.123473 -0.482668 -2.727155 -0.445914 17.130437 1.175188 2.240452 7.863826 -0.030789 -0.310573 -7.614626 -4.499060 -5.786914 4.714766 -2.112558 -7.453721 -12.713811 -2.557161 0.770834 -0.156447 0.036857 0.063821 2.451865 -0.000913 0.100572 2.451956 4.885132 0.009130 -1.058547 7.984725 2.177188 -6.042425 -10.921170 1.212404 -4.186217 0.368524 2.990684 -11.446588 10.471795 3.985216 1.966203 2.473199 0.191487 -0.895882 0.982465 -0.892184 -4.293278 -6.929817 -2.504812 -16.384507 -0.000030 0.000324 33.480064 -0.441785 -0.458727 -72.796149 -0.000060 -0.000072 -21.993988 0.000020 -0.000008 -0.026807 0.000003 -0.000015 0.012747 -0.000094 -0.000110 -34.639871 0.000036 0.000015 0.015170 0.000026 -0.000010 0.012723 -0.000047 -0.000054 -24.223450 0.000013 -0.000013 -0.000050 -0.073034 0.030635 0.020247 5.257253 -2.004050 372.950978 -0.012885 0.003653 0.005525 0.024187 -0.030003 11.786625 0.011007 -0.005855 0.003932 0.023213 -0.032308 11.716021 0.161457 -0.364919 0.342755 0.050267 0.015088 11.755998 -0.302683 0.044687 0.152035 0.050137 0.014757 11.743109 0.844437 -0.261073 -0.798457 -0.004543 -0.052597 11.750687 0.000081 -0.000037 11.750669 
0.000000 0.000000 0.000000 0.000008 0.000000 -0.000000 -0.000000 0.000000 -0.000000 -0.054108 0.088746 -1.979291 0.592553 -2.024585 4.101812 -0.679661 3.410175 49.972072 0.331624 -7.205451 0.304759 -0.363882 -4.981524 -8.034970 -1.480038 -3.870557 -25.561268 -0.549987 -4.422660 -18.347237 0.529349 4.103094 10.277930 3.688926 15.326521 -18.982750 2.299373 -0.108595 -11.679709 -6.253503 -2.305719 34.174602 -2.438920 -19.100885 -18.183077 -0.072174 0.762471 -0.028009 0.000101 -0.000137 0.000004 8.516816 -11.026693 -1.144255 -5.463341 1.072115 -28.463821 4.818034 1.374140 25.546299 -13.350254 8.527897 -22.007481 -0.008043 0.556416 -0.026016 -0.003824 0.006514 -0.038812 0.875841 -0.369625 -6.616067 0.917530 -0.020777 6.784391 1.116331 -0.135264 -0.005060 0.014320 0.993320 -6.677402 0.000078 -0.000112 -0.000056 -0.000052 -0.014927 0.015042 -0.008335 0.000147 0.012246 4.494215 4.580196 -5.504189 -13.430012 8.077780 -3.553098 2.834177 -1.361440 -7.316859 -3.115452 1.425200 10.186055 -8.269231 -5.541865 0.244583 -0.000117 -0.147120 3.587135 7.202995 4.293322 -6.543151 1.973545 3.498314 1.788510 -0.288561 0.000223 -4.847496 -0.802260 0.160590 -0.479879 -0.804179 0.123473 -0.482667 -2.671670 0.008763 13.713329 1.128994 2.224508 7.810924 -0.025173 -0.275239 -6.742367 -4.539646 -5.755385 6.125075 -1.820664 -7.514127 -11.171369 -2.667933 0.825755 -0.168177 0.036639 0.063819 2.451867 -0.000914 0.100571 2.451955 3.817485 -0.003997 -0.849098 10.271981 2.436520 -6.732030 -5.446480 1.705936 -5.671433 0.192849 3.345800 -11.573528 9.202583 3.235271 1.514072 3.163748 0.205538 -0.959038 1.243221 -0.857442 -4.018570 -6.810718 -2.181674 -18.592017 -0.000029 0.000323 33.480061 -0.441786 -0.458726 -72.796149 -0.000060 -0.000072 -21.993989 0.000020 -0.000008 -0.026807 0.000003 -0.000016 0.012752 -0.000095 -0.000110 -34.639871 0.000036 0.000015 0.015163 0.000026 -0.000010 0.012723 -0.000047 -0.000054 -24.223449 0.000014 -0.000013 -0.000048 -0.073060 0.030643 0.020263 6.110071 -1.500811 373.303825 -0.012885 0.003652 0.005518 0.024202 -0.030002 11.786647 0.010947 -0.006005 0.003941 0.023228 -0.032299 11.715988 0.171351 -0.376659 0.343039 0.050280 0.015111 11.756002 -0.306881 0.046580 0.135599 0.050147 0.014784 11.743104 0.784001 -0.260579 -0.924676 -0.004526 -0.052617 11.750686 0.000081 -0.000037 11.750668 
0.000000 0.000000 0.000000 0.000008 0.000000 -0.000000 -0.000000 0.000000 -0.000000 -0.060608 0.082526 -1.783777 0.613160 -2.065228 4.359869 -1.785281 4.349663 48.805011 1.009481 -8.283665 4.783463 -0.421169 -5.437543 -8.107909 -1.313091 -3.787248 -23.627385 -0.227232 -4.008504 -14.480069 0.539651 4.102920 9.393369 3.673496 15.318337 -18.890474 2.248226 -0.101030 -11.417897 -6.203757 -2.268050 33.860694 -2.416202 -19.118406 -17.771958 -0.074333 0.823239 -0.029696 0.000101 -0.000138 0.000004 8.130248 -10.647540 -2.010407 -4.572427 0.696113 -23.578327 4.826193 1.378605 25.593202 -11.226980 8.287435 -15.929531 0.112204 0.586830 0.549719 -0.003824 0.006513 -0.038814 0.812621 -0.379936 -6.425655 0.917530 -0.020777 6.784391 1.120844 -0.134719 -0.005177 0.212418 0.855761 -6.402670 0.000078 -0.000112 -0.000056 -0.000052 -0.014927 0.015042 -0.008329 0.000146 0.012248 4.965259 4.611569 -5.635635 -4.299967 6.658983 -5.850023 2.566521 -1.499662 -5.201966 -2.805907 1.703378 8.076803 -8.263928 -5.349150 -0.601926 0.001022 -0.177960 4.339569 7.055410 4.355116 -6.444247 1.973545 3.498315 1.788511 -0.297747 0.000788 -4.941661 -0.802288 0.160590 -0.479881 -0.804178 0.123473 -0.482668 -2.478307 0.457459 10.380727 1.095112 2.091020 5.597755 -0.001946 -0.045869 -1.119568 -4.900332 -5.637604 3.236214 -1.968425 -7.486254 -11.949968 -2.779753 0.881218 -0.179933 0.036667 0.063818 2.451868 -0.000914 0.100573 2.451955 2.793635 -0.009924 -0.628533 11.253547 2.586912 -7.160064 1.534868 1.928426 -7.123148 0.094466 3.546903 -11.687719 7.990384 2.507114 1.084208 3.724139 0.218632 -1.283511 1.502948 -0.822558 -3.751338 -6.636413 -1.829404 -20.222841 -0.000030 0.000324 33.480061 -0.441785 -0.458727 -72.796149 -0.000060 -0.000072 -21.993984 0.000020 -0.000008 -0.026808 0.000003 -0.000016 0.012747 -0.000095 -0.000110 -34.639875 0.000036 0.000016 0.015165 0.000026 -0.000009 0.012716 -0.000048 -0.000054 -24.223457 0.000014 -0.000013 -0.000048 -0.073082 0.030653 0.020250 6.978236 -0.650665 373.014280 -0.012886 0.003654 0.005520 0.024218 -0.029991 11.786670 0.010858 -0.006203 0.003934 0.023244 -0.032294 11.715969 0.181339 -0.388519 0.343294 0.050294 0.015134 11.756004 -0.311113 0.048499 0.118941 0.050160 0.014808 11.743102 0.717991 -0.260560 -1.041133 -0.004509 -0.052638 11.750690 0.000080 -0.000037 11.750681 
0.000000 0.000000 0.000000 0.000008 0.000000 -0.000000 -0.000000 0.000000 -0.000000 -0.065690 0.077586 -1.584651 0.633036 -2.098381 4.599356 -2.930926 5.456131 47.097276 1.938112 -9.260982 9.815026 -0.500053 -6.086591 -8.179400 -1.224548 -3.676177 -22.950202 0.060942 -3.582195 -10.692146 0.523527 4.089894 8.478710 3.685679 15.288438 -18.906013 2.137288 -0.085442 -10.850625 -6.132257 -2.214659 33.411708 -2.382917 -19.098063 -17.384959 -0.076448 0.882823 -0.031323 0.000101 -0.000138 0.000004 7.802854 -10.352464 -3.157045 -3.806850 0.441432 -19.498401 4.722352 1.322396 24.997681 -9.977348 8.115942 -12.234015 -0.000114 0.605870 -0.012312 -0.003824 0.006513 -0.038814 0.753259 -0.394430 -6.256059 0.917530 -0.020777 6.784392 1.125271 -0.134162 -0.005308 0.416686 0.701092 -6.088105 0.000078 -0.000112 -0.000056 -0.000052 -0.014928 0.015042 -0.008341 0.000149 0.012255 4.340533 4.782347 -5.669222 3.464994 5.455105 -7.196561 2.168397 -1.595326 -3.719417 -2.372494 1.895896 6.592792 -8.227794 -5.141639 -1.384899 0.002374 -0.205314 5.007342 6.881013 4.428845 -6.295749 1.973544 3.498314 1.788511 -0.306517 0.001311 -5.033922 -0.802342 0.160591 -0.479885 -0.804179 0.123473 -0.482668 -2.106652 0.750045 8.219277 1.139552 2.080966 3.834644 0.001009 0.107016 2.609048 -5.227115 -5.523857 1.289162 -2.115011 -7.453536 -12.706674 -2.889425 0.935619 -0.191318 0.036693 0.063821 2.451867 -0.000913 0.100572 2.451955 1.890479 -0.011132 -0.429286 10.897456 2.639480 -7.341451 8.650970 1.911253 -7.817793 0.117906 3.527565 -11.791186 6.913534 1.850485 0.703568 4.117787 0.250300 -2.174396 1.416222 -0.934836 -4.489679 -6.444047 -1.484221 -20.999946 -0.000030 0.000323 33.480057 -0.441786 -0.458727 -72.796149 -0.000060 -0.000072 -21.993984 0.000019 -0.000008 -0.026805 0.000002 -0.000016 0.012743 -0.000095 -0.000110 -34.639871 0.000035 0.000015 0.015163 0.000025 -0.000010 0.012721 -0.000048 -0.000055 -24.223455 0.000013 -0.000013 -0.000048 -0.073127 0.030676 0.020265 7.692091 0.738572 371.236983 -0.012886 0.003655 0.005525 0.024253 -0.029988 11.786702 0.010786 -0.006383 0.003942 0.023269 -0.032285 11.715927 0.191131 -0.400147 0.343582 0.050316 0.015183 11.756011 -0.315261 0.050398 0.102637 0.050190 0.014853 11.743084 0.647814 -0.256213 -1.144782 -0.004474 -0.052679 11.750683 0.000080 -0.000037 11.750689 
